<svg version="1.1" id="Layer_1" xmlns="http://www.w3.org/2000/svg" xmlns:xlink="http://www.w3.org/1999/xlink" x="0px" y="0px"
	 width="100%" viewBox="0 0 500 500" enable-background="new 0 0 500 500" xml:space="preserve">
<path fill="#000000" opacity="1.000000" stroke="none" 
	d="
M338.000000,501.000000 
	C225.333359,501.000000 113.166718,501.000000 1.000060,501.000000 
	C1.000040,334.333405 1.000040,167.666794 1.000020,1.000150 
	C167.666565,1.000100 334.333130,1.000100 500.999756,1.000050 
	C500.999847,167.666519 500.999847,334.333038 500.999939,500.999786 
	C446.833344,501.000000 392.666656,501.000000 338.000000,501.000000 
M252.015961,292.024261 
	C253.643951,292.024261 255.271927,292.024261 256.476868,292.024261 
	C257.472473,295.858582 258.343109,299.211609 259.213745,302.564667 
	C259.716370,302.033173 260.218994,301.501678 260.721649,300.970184 
	C262.224945,301.284485 263.717987,301.674469 265.236023,301.879822 
	C265.951447,301.976562 266.712402,301.670349 267.457031,301.633270 
	C268.547699,301.578949 269.642334,301.606750 270.735138,301.591125 
	C271.576721,301.579132 272.418335,301.531372 273.259552,301.539185 
	C276.254150,301.566986 279.249146,301.588928 282.242676,301.665802 
	C283.002777,301.685333 283.780457,302.079651 284.510742,301.988098 
	C286.101624,301.788727 287.667236,301.387573 290.653473,300.783630 
	C291.575470,296.593994 296.183655,296.741730 300.982300,296.882935 
	C301.993500,296.912689 303.224792,295.638672 304.054840,294.700165 
	C312.986298,284.601746 321.934906,274.515839 330.663849,264.243866 
	C332.007751,262.662445 332.863068,260.175140 332.921997,258.078033 
	C333.168701,249.298172 333.026062,240.507370 333.026062,231.924179 
	C335.101929,231.025040 336.793549,230.447723 338.322510,229.582886 
	C339.639496,228.837936 340.771057,227.765274 341.984619,226.837509 
	C340.870911,225.853653 339.899017,224.589996 338.616211,223.939789 
	C335.140411,222.178055 335.084991,220.619019 338.664337,219.119781 
	C343.044006,217.285339 342.610413,215.446426 338.746399,213.602814 
	C334.993286,211.812103 334.967682,210.322693 338.882446,208.712509 
	C340.109467,208.207809 341.121979,207.181473 342.293091,206.351074 
	C341.830841,205.578064 341.690125,205.025497 341.340118,204.804825 
	C335.817780,201.323242 335.855835,201.385010 340.784729,197.193481 
	C341.178040,196.859009 340.741669,194.548798 340.076904,194.129089 
	C334.938110,190.884430 334.737854,189.993164 339.897766,187.345734 
	C343.171295,185.666168 343.114014,185.103317 339.840149,183.688675 
	C338.424530,183.076965 337.477509,181.380768 336.317627,180.177200 
	C337.484924,179.165131 338.496002,177.777115 339.850067,177.214493 
	C343.312592,175.775742 343.044006,174.514511 339.807739,173.525665 
	C335.380157,172.172821 330.854797,171.140015 325.727295,169.801971 
	C325.727295,168.961639 325.494263,167.303986 325.763855,165.732574 
	C328.073639,152.269028 323.703552,141.481110 313.134735,132.941971 
	C310.832520,131.081863 309.421967,128.005081 306.987793,126.445107 
	C302.093994,123.308861 296.790344,120.807655 291.617340,118.118378 
	C291.092010,117.845261 290.304474,118.074028 289.638611,118.073997 
	C278.651703,118.073486 267.661163,117.927216 256.680878,118.196983 
	C254.480453,118.251038 252.318939,119.889732 250.204651,119.994713 
	C245.585800,112.673965 238.414032,111.257072 230.673065,112.178986 
	C222.233658,113.184097 215.930756,120.858002 213.643372,131.921371 
	C199.253876,134.776077 194.520660,140.577194 193.397934,156.734558 
	C177.418564,159.579224 171.253799,170.002747 175.317429,187.628143 
	C166.913330,188.881912 161.903961,194.034668 160.366623,202.124268 
	C158.507858,211.905212 161.374298,220.155731 170.298828,225.868591 
	C169.397186,226.895935 168.721466,227.597610 168.121918,228.359238 
	C159.465042,239.356522 161.411133,255.033722 172.360168,263.146088 
	C173.170959,263.746857 173.837494,264.825500 174.121063,265.811462 
	C177.507706,277.585785 181.698425,280.762177 192.876205,281.026764 
	C197.019485,286.295990 199.747864,291.993134 204.270004,294.895233 
	C208.863266,297.842957 215.225937,298.033569 221.882553,299.699036 
	C226.636139,308.892670 234.235855,312.767151 242.566315,309.193237 
	C250.018188,305.996246 253.401917,299.207092 252.015961,292.024261 
M255.348923,330.185486 
	C255.348923,342.307587 255.348923,354.429688 255.348923,366.732056 
	C257.761108,366.732056 259.655670,366.732056 262.067383,366.732056 
	C262.067383,362.390900 262.067383,358.320282 262.067383,352.670502 
	C264.033630,354.580261 265.294189,355.296173 265.745941,356.356659 
	C266.517822,358.168671 266.940247,360.173492 267.229279,362.138550 
	C267.932526,366.919800 270.499939,368.095276 274.969177,366.392700 
	C274.292114,363.718018 273.564636,361.167358 273.019714,358.578217 
	C272.655701,356.848602 271.697876,354.384918 272.469849,353.414948 
	C277.392273,347.230042 274.571045,340.260223 274.687134,333.684601 
	C274.714569,332.131409 272.023743,329.339111 270.374847,329.171783 
	C265.512207,328.678406 260.545013,329.215240 255.348923,330.185486 
M225.264099,352.443665 
	C225.281128,354.936066 225.138489,357.441986 225.348480,359.917999 
	C225.784622,365.060608 227.781448,366.839294 233.043869,367.020294 
	C234.703156,367.077393 236.369370,367.063568 238.027863,366.985504 
	C241.659348,366.814606 244.303497,365.056396 244.373215,361.317749 
	C244.573257,350.590912 244.443710,339.857941 244.443710,328.989258 
	C242.194443,328.989258 240.313614,328.989258 238.128403,328.989258 
	C238.128403,336.018555 238.672745,342.713135 237.918762,349.258179 
	C237.485046,353.023193 241.535355,360.092621 234.954895,360.114807 
	C229.101562,360.134521 232.487167,353.210968 232.164948,349.494293 
	C231.582108,342.771545 231.999908,335.962006 231.999908,329.067383 
	C229.539642,329.067383 227.532303,329.067383 225.264389,329.067383 
	C225.264389,336.854828 225.264389,344.157776 225.264099,352.443665 
M293.533630,331.090393 
	C290.989594,342.877960 288.445526,354.665558 285.785248,366.991669 
	C289.020020,366.607697 292.633789,368.760925 292.981201,363.684692 
	C293.199646,360.493164 294.429901,359.160400 297.931519,359.138367 
	C301.617218,359.115234 303.102936,360.394165 303.181976,363.921661 
	C303.202942,364.855591 303.782013,365.777069 304.096008,366.678864 
	C306.141357,366.678864 308.044891,366.678864 310.320526,366.678864 
	C307.826660,355.093872 305.418701,343.904694 303.009064,332.715912 
	C301.989410,327.981476 297.892670,326.920776 293.533630,331.090393 
M211.087097,347.195343 
	C209.764603,341.065887 208.442093,334.936432 207.130310,328.856689 
	C204.186234,328.856689 201.751175,328.856689 199.022827,328.856689 
	C196.291168,341.473572 193.596817,353.918091 190.843735,366.633911 
	C194.877426,367.372253 198.178085,367.863922 198.224960,362.388153 
	C198.250031,359.461731 200.311249,359.083496 202.745575,359.246094 
	C205.018311,359.397919 207.787399,358.700134 207.873550,362.249725 
	C207.998688,367.406219 210.910431,367.673920 215.284424,366.478516 
	C213.924652,360.265625 212.584991,354.144623 211.087097,347.195343 
z"/>
<path fill="#F7F6F3" opacity="1.000000" stroke="none" 
	d="
M251.134125,292.002869 
	C253.401917,299.207092 250.018188,305.996246 242.566315,309.193237 
	C234.235855,312.767151 226.636139,308.892670 221.882553,299.699036 
	C215.225937,298.033569 208.863266,297.842957 204.270004,294.895233 
	C199.747864,291.993134 197.019485,286.295990 192.876205,281.026764 
	C181.698425,280.762177 177.507706,277.585785 174.121063,265.811462 
	C173.837494,264.825500 173.170959,263.746857 172.360168,263.146088 
	C161.411133,255.033722 159.465042,239.356522 168.121918,228.359238 
	C168.721466,227.597610 169.397186,226.895935 170.298828,225.868591 
	C161.374298,220.155731 158.507858,211.905212 160.366623,202.124268 
	C161.903961,194.034668 166.913330,188.881912 175.317429,187.628143 
	C171.253799,170.002747 177.418564,159.579224 193.397934,156.734558 
	C194.520660,140.577194 199.253876,134.776077 213.643372,131.921371 
	C215.930756,120.858002 222.233658,113.184097 230.673065,112.178986 
	C238.414032,111.257072 245.585800,112.673965 249.968033,120.400780 
	C249.075821,121.849594 248.420227,122.892342 247.430634,123.904816 
	C246.091187,123.051544 245.089157,122.224304 244.079712,121.406189 
	C236.010162,114.866112 224.391815,117.983147 220.660400,127.675758 
	C219.414124,130.913055 219.186768,133.445129 223.130814,135.369049 
	C225.521744,136.535339 227.431213,138.977936 229.091263,141.195740 
	C229.669556,141.968323 228.850616,143.786758 228.669785,145.127563 
	C227.371323,144.944809 226.009933,144.939499 224.798920,144.510117 
	C224.116684,144.268188 223.718643,143.290604 223.130524,142.706940 
	C218.654343,138.264572 212.385101,137.226654 207.107773,140.033173 
	C201.782852,142.865005 198.208267,149.979523 199.411530,155.585098 
	C199.642075,156.659164 200.117294,157.893204 200.892410,158.602142 
	C204.814835,162.189621 208.873535,165.628098 212.938599,169.165924 
	C218.847931,163.004700 223.191757,159.905869 229.707245,160.233154 
	C237.394440,160.619324 242.761398,157.582108 247.534637,151.882416 
	C249.219620,151.900223 250.519058,151.859634 252.093811,151.988983 
	C249.766846,156.133408 247.164551,160.107864 244.521194,164.145065 
	C245.462250,165.358795 246.854904,167.154999 248.099731,169.243530 
	C246.689117,170.695480 245.426315,171.855103 244.042847,172.682892 
	C236.420029,164.007141 225.563370,163.631592 218.410202,172.076202 
	C212.683899,178.836319 209.006165,186.381241 212.386917,195.881134 
	C213.604980,199.303802 213.245316,203.372055 213.178787,207.138153 
	C213.134399,209.650543 212.335556,212.149597 211.865158,214.704651 
	C226.453537,215.066971 234.251999,220.735046 237.700424,233.169540 
	C239.272583,238.838425 248.797943,241.900757 252.670715,237.605530 
	C255.357635,234.625488 258.164001,233.683014 261.794312,234.487762 
	C258.805908,238.654404 255.852249,242.482422 253.338425,245.740433 
	C253.942505,250.140900 254.556442,254.613235 254.959229,258.954742 
	C253.934982,258.852875 253.121887,258.881805 251.931519,258.746704 
	C250.701218,256.633484 249.836746,254.689194 248.997421,252.734100 
	C246.946152,247.956085 243.992340,244.155380 239.040253,242.975845 
	C236.885025,247.156555 235.202454,251.338058 232.696274,254.947739 
	C231.119598,257.218628 228.889252,261.551056 225.442230,258.781189 
	C221.629944,255.717773 226.299240,253.780884 228.000992,251.800354 
	C233.070312,245.900620 234.216904,237.328384 230.639328,230.307571 
	C227.333542,223.820175 220.848465,220.199402 213.867645,220.943527 
	C204.717651,221.918869 199.934418,231.754623 205.341675,239.109833 
	C206.713150,240.975372 209.622940,242.414886 211.941910,242.600510 
	C213.223328,242.703079 214.709442,239.764038 216.171158,238.262177 
	C217.210510,237.194275 218.363159,236.236603 219.465240,235.229736 
	C220.235916,236.705978 221.695267,238.203049 221.651367,239.654648 
	C221.504944,244.495193 217.470490,249.109558 212.743042,248.714691 
	C207.069351,248.240799 205.084106,251.652283 203.035843,255.484955 
	C199.028107,262.984161 197.908752,270.933563 200.137253,279.169891 
	C201.518082,284.273346 203.993317,288.767792 209.078613,291.186127 
	C213.940918,293.498352 220.377777,292.360382 223.759613,288.425446 
	C226.795441,284.893127 228.182587,280.844147 225.601532,276.495422 
	C222.568054,271.384399 218.153290,272.824554 213.666611,274.176849 
	C212.684296,274.472900 211.259857,273.302185 210.039032,272.806946 
	C210.651047,271.440338 210.882294,269.491241 211.936981,268.801819 
	C218.707062,264.376251 227.609390,267.013031 230.951828,274.388031 
	C233.761795,280.588135 232.520767,286.372742 228.599426,291.760223 
	C227.776825,292.890381 226.635666,294.250793 226.679169,295.468018 
	C226.853470,300.343384 233.082550,304.815613 238.304123,304.114288 
	C243.895630,303.363281 246.692444,299.331268 245.692490,293.847656 
	C242.489304,294.576050 239.304321,295.537689 236.052765,295.897095 
	C235.058136,296.007050 233.393860,294.666504 232.952759,293.608215 
	C232.642181,292.863098 233.605499,290.867035 234.473709,290.472870 
	C238.641846,288.580597 242.971191,287.043365 247.421448,285.641602 
	C248.777771,287.936401 249.955948,289.969635 251.134125,292.002869 
M168.301163,197.981094 
	C167.627029,199.310562 166.755035,200.577362 166.310822,201.979675 
	C163.376755,211.242172 169.312698,221.768097 177.734283,221.258789 
	C185.158417,220.809799 192.198013,220.783737 198.318253,225.318298 
	C199.759995,223.338074 200.800476,221.842117 201.908432,220.397934 
	C209.520187,210.476288 212.274200,192.331039 195.905365,185.398270 
	C194.903687,184.974030 194.650665,182.782089 194.049316,181.412628 
	C195.470078,180.965500 197.141510,179.813049 198.261841,180.211227 
	C200.984314,181.178848 203.450745,182.866943 206.303223,184.418686 
	C208.732925,177.776459 207.742249,172.067856 202.996750,167.256378 
	C199.041977,163.246582 194.170654,161.927582 188.814026,164.090500 
	C182.789963,166.522949 179.726624,171.340134 179.551544,177.672775 
	C179.409439,182.813446 180.818649,187.201874 185.905563,190.221405 
	C194.764557,195.479950 194.922150,207.509933 186.408157,211.765457 
	C184.991180,212.473709 182.884598,211.802277 181.096680,211.768402 
	C181.865921,210.107300 182.192123,207.845047 183.483948,206.893066 
	C188.152542,203.452606 188.087189,198.203262 183.005020,195.275848 
	C178.655167,192.770248 173.327026,193.564758 168.301163,197.981094 
M201.833389,246.892181 
	C201.746109,245.917908 201.886215,244.849167 201.528214,243.987350 
	C200.519455,241.559021 198.578766,239.290894 198.323746,236.823364 
	C197.783554,231.596817 194.492035,229.378098 190.252930,227.868530 
	C182.958817,225.271072 175.766617,227.480911 171.679565,233.432251 
	C167.504837,239.511246 167.181183,250.305634 171.805710,254.916443 
	C173.713821,256.818909 177.525620,258.217987 180.026901,257.699738 
	C182.253281,257.238434 184.170578,253.999969 185.622223,251.619965 
	C186.362961,250.405502 185.516632,248.324036 185.878143,246.746902 
	C186.195801,245.361145 187.197128,244.132111 187.896484,242.833847 
	C188.998077,243.966385 190.791977,244.942764 191.088379,246.256912 
	C192.942917,254.479507 189.301529,260.430664 179.890564,264.934998 
	C180.515778,269.350128 182.772064,272.556488 186.995789,274.252197 
	C191.594162,276.098358 193.534851,274.896759 193.627380,270.070374 
	C193.787643,261.709564 196.304703,254.182236 201.833389,246.892181 
z"/>
<path fill="#10C1E8" opacity="1.000000" stroke="none" 
	d="
M247.764648,123.935089 
	C248.420227,122.892342 249.075821,121.849594 249.935455,120.802315 
	C252.318939,119.889732 254.480453,118.251038 256.680878,118.196983 
	C267.661163,117.927216 278.651703,118.073486 289.638611,118.073997 
	C290.304474,118.074028 291.092010,117.845261 291.617340,118.118378 
	C296.790344,120.807655 302.093994,123.308861 306.987793,126.445107 
	C309.421967,128.005081 310.832520,131.081863 313.134735,132.941971 
	C323.703552,141.481110 328.073639,152.269028 325.763855,165.732574 
	C325.494263,167.303986 325.727295,168.961639 325.727295,169.801971 
	C330.854797,171.140015 335.380157,172.172821 339.807739,173.525665 
	C343.044006,174.514511 343.312592,175.775742 339.850067,177.214493 
	C338.496002,177.777115 337.484924,179.165131 336.317627,180.177200 
	C337.477509,181.380768 338.424530,183.076965 339.840149,183.688675 
	C343.114014,185.103317 343.171295,185.666168 339.897766,187.345734 
	C334.737854,189.993164 334.938110,190.884430 340.076904,194.129089 
	C340.741669,194.548798 341.178040,196.859009 340.784729,197.193481 
	C335.855835,201.385010 335.817780,201.323242 341.340118,204.804825 
	C341.690125,205.025497 341.830841,205.578064 342.293091,206.351074 
	C341.121979,207.181473 340.109467,208.207809 338.882446,208.712509 
	C334.967682,210.322693 334.993286,211.812103 338.746399,213.602814 
	C342.610413,215.446426 343.044006,217.285339 338.664337,219.119781 
	C335.084991,220.619019 335.140411,222.178055 338.616211,223.939789 
	C339.899017,224.589996 340.870911,225.853653 341.984619,226.837509 
	C340.771057,227.765274 339.639496,228.837936 338.322510,229.582886 
	C336.793549,230.447723 335.101929,231.025040 333.026062,231.924179 
	C333.026062,240.507370 333.168701,249.298172 332.921997,258.078033 
	C332.863068,260.175140 332.007751,262.662445 330.663849,264.243866 
	C321.934906,274.515839 312.986298,284.601746 304.054840,294.700165 
	C303.224792,295.638672 301.993500,296.912689 300.982300,296.882935 
	C296.183655,296.741730 291.575470,296.593994 290.653473,300.783630 
	C287.667236,301.387573 286.101624,301.788727 284.510742,301.988098 
	C283.780457,302.079651 283.002777,301.685333 282.242676,301.665802 
	C279.249146,301.588928 276.254150,301.566986 273.259552,301.539185 
	C272.418335,301.531372 271.576721,301.579132 270.735138,301.591125 
	C269.642334,301.606750 268.547699,301.578949 267.457031,301.633270 
	C266.712402,301.670349 265.951447,301.976562 265.236023,301.879822 
	C263.717987,301.674469 262.224945,301.284485 260.721649,300.970184 
	C260.218994,301.501678 259.716370,302.033173 259.213745,302.564667 
	C258.343109,299.211609 257.472473,295.858582 256.476868,292.024261 
	C255.271927,292.024261 253.643951,292.024261 251.575043,292.013550 
	C249.955948,289.969635 248.777771,287.936401 247.536743,285.227539 
	C245.657471,281.518707 243.701370,278.557068 242.091522,275.417908 
	C241.423233,274.114746 241.171066,272.385620 241.378754,270.943726 
	C241.469986,270.310425 243.667709,269.240997 244.069580,269.531372 
	C245.251083,270.385040 246.250488,271.709198 246.879715,273.055511 
	C247.739594,274.895325 248.192520,276.925354 248.944595,279.207886 
	C250.101883,281.353790 251.134460,283.165680 252.119995,285.387878 
	C253.481537,286.744293 254.890121,287.690430 256.339905,288.664215 
	C257.449432,283.996979 258.274445,280.526611 258.963623,277.627594 
	C265.177551,278.219391 270.538696,280.053680 275.045258,278.804565 
	C280.024689,277.424408 285.141876,280.561157 290.703491,276.598999 
	C291.739685,280.644470 292.660309,284.238678 293.834595,288.823303 
	C295.568420,287.657043 297.492737,286.852448 298.735962,285.445923 
	C306.126862,277.083923 313.381989,268.601227 320.619568,260.105286 
	C321.548828,259.014496 322.717133,257.625885 322.746613,256.351471 
	C322.938019,248.076889 322.844849,239.795746 322.844849,231.516754 
	C322.234711,231.246033 321.624573,230.975311 321.014435,230.704575 
	C320.123657,232.019745 318.554688,233.290237 318.464569,234.658142 
	C318.147583,239.469193 318.395050,244.314682 318.313599,249.145172 
	C318.271912,251.618729 318.968842,255.180328 317.643250,256.372406 
	C311.565033,261.838440 309.629822,272.412750 298.806580,272.173248 
	C298.379822,272.163818 297.925995,272.579712 297.513550,272.842499 
	C291.143036,276.900940 282.376526,275.808075 277.198303,270.287689 
	C275.752472,268.746338 274.666748,266.671570 271.888855,268.597565 
	C271.284760,269.016418 269.014160,267.995819 268.341278,267.048492 
	C267.795258,266.279816 268.048096,264.111908 268.755707,263.499420 
	C269.601837,262.767090 271.713104,262.413483 272.568298,262.974731 
	C275.291473,264.761932 277.662598,267.078949 280.217651,269.131622 
	C281.461487,270.130920 282.686157,271.430847 284.135162,271.850952 
	C291.060089,273.858917 296.893982,268.738617 303.541870,268.581116 
	C304.005707,268.570099 304.422119,267.639191 304.904877,267.182953 
	C312.694763,259.820587 318.115540,251.548950 315.791168,240.078140 
	C315.401917,238.157303 315.833496,236.083008 315.685760,234.094482 
	C315.619385,233.201294 315.315521,232.028168 314.685516,231.520187 
	C307.866486,226.022018 296.942078,226.905533 290.931427,233.404297 
	C286.036560,238.696671 281.906342,245.253586 272.939301,243.173645 
	C272.091553,242.977005 270.956085,244.480530 269.911224,244.550156 
	C268.765869,244.626480 267.085144,244.300858 266.526978,243.517105 
	C265.906525,242.645889 265.833527,240.798370 266.370544,239.862900 
	C266.856628,239.016174 268.883850,238.094299 269.548889,238.457062 
	C277.110382,242.581696 282.599243,239.631378 286.879913,233.380951 
	C291.435547,226.729034 297.297241,223.548431 305.402649,225.045288 
	C305.885559,225.134491 306.521088,225.243515 306.879486,225.017059 
	C308.633911,223.908508 310.318451,222.689301 312.027679,221.509232 
	C310.313965,220.347076 308.688568,218.381958 306.869080,218.181915 
	C302.424103,217.693207 297.882935,217.887589 293.394745,218.103119 
	C292.084686,218.166031 290.735535,219.091568 289.555176,219.854950 
	C286.333435,221.938461 283.303711,224.350662 279.951660,226.181839 
	C278.932495,226.738571 276.851196,226.202118 275.761719,225.442001 
	C275.161865,225.023483 275.108398,222.466858 275.701355,221.994217 
	C276.727356,221.176422 278.436615,221.155823 279.879944,220.937210 
	C281.574463,220.680527 284.257446,221.193390 284.839172,220.292465 
	C288.287689,214.951981 293.253723,214.501160 298.786560,214.957932 
	C301.268768,215.162842 303.934601,215.511429 306.236633,214.837234 
	C308.356842,214.216324 310.101318,212.312332 312.011292,210.973541 
	C310.052185,209.675858 308.134460,207.336746 306.126923,207.256943 
	C296.323395,206.867233 286.495880,207.080490 277.072876,207.080490 
	C275.432861,209.894165 273.992828,212.364777 272.160706,215.508026 
	C271.188934,213.459610 270.686981,212.401566 270.077606,211.117050 
	C269.086395,212.584366 268.378723,213.631973 267.953918,214.260818 
	C265.796356,212.591171 264.048279,211.238373 262.160828,209.519592 
	C262.614044,207.847336 263.206543,206.541061 263.706757,205.438278 
	C263.016724,204.513397 262.314148,203.571732 261.939941,203.070145 
	C264.163055,200.536591 265.947418,198.503036 268.077789,196.075134 
	C268.740509,197.633255 269.197144,198.706909 269.821045,200.173721 
	C270.697876,198.670944 271.345215,197.561539 272.409912,195.736786 
	C274.166870,198.909470 275.557617,201.420792 277.004791,204.034103 
	C286.753510,204.034103 296.575806,204.205307 306.382111,203.886185 
	C308.289154,203.824127 310.134064,201.853271 312.007629,200.762863 
	C310.109009,199.591797 308.259491,198.325867 306.284119,197.303085 
	C305.627197,196.962936 304.647308,197.245331 303.815063,197.245255 
	C297.490021,197.244614 291.156006,197.041092 284.843323,197.320236 
	C281.036499,197.488571 278.145050,196.568222 275.802338,193.449554 
	C274.149567,191.249374 272.346191,188.633011 268.958984,191.610947 
	C268.405273,192.097748 266.002533,191.575989 265.576355,190.856140 
	C264.940399,189.781937 264.782959,187.793442 265.400513,186.805801 
	C265.903839,186.000839 268.205109,185.427475 269.078888,185.904922 
	C272.435059,187.738815 275.540924,190.031967 278.732544,192.165237 
	C279.670563,192.792236 280.574768,194.004501 281.509094,194.019196 
	C290.326569,194.157883 299.152527,194.246109 307.961426,193.934937 
	C309.347046,193.886017 310.659454,191.764801 312.005707,190.601761 
	C310.614105,189.434586 309.346039,188.041580 307.783478,187.186951 
	C306.879700,186.692612 305.501343,187.052139 304.336578,187.050995 
	C298.344452,187.045090 292.347687,187.176147 286.363251,186.960846 
	C284.735840,186.902298 282.537201,186.277161 281.638000,185.111740 
	C276.117615,177.956924 269.292786,179.122696 262.062225,181.381927 
	C261.055817,181.696396 259.062439,181.275177 258.667725,180.562332 
	C258.059998,179.464752 258.002502,177.605255 258.553497,176.481995 
	C258.929108,175.716263 260.781738,175.244781 261.903778,175.355194 
	C265.430206,175.702179 268.928802,176.853821 272.428131,176.813843 
	C276.229584,176.770432 279.077759,177.665268 281.477631,180.719711 
	C282.600281,182.148560 284.518433,183.762970 286.147247,183.842972 
	C293.121155,184.185410 300.136383,184.232681 307.101715,183.811478 
	C308.800873,183.708740 310.368011,181.422714 311.995880,180.140533 
	C310.367096,179.065063 308.820770,177.254807 307.093018,177.060883 
	C302.983032,176.599487 298.752777,176.562836 294.634613,176.980621 
	C289.154144,177.536621 285.123474,175.842545 281.802582,171.399338 
	C279.755188,168.660034 277.320618,165.425583 274.347870,164.308899 
	C265.264618,160.896820 255.734344,164.660080 250.010742,173.183716 
	C249.097290,174.316315 248.170303,175.225723 246.874130,176.173553 
	C245.934906,177.165558 245.489014,178.229294 244.764526,179.045837 
	C243.778000,180.157684 242.687729,181.635895 241.431107,181.882446 
	C240.642944,182.037094 238.595261,180.141815 238.669678,179.304672 
	C238.782730,178.033112 240.166534,176.808380 241.163223,175.701202 
	C242.056183,174.709259 243.155350,173.902954 244.163528,173.014740 
	C245.426315,171.855103 246.689117,170.695480 248.402084,169.127029 
	C253.266632,164.778061 256.576416,160.293594 264.172089,160.566849 
	C272.745270,160.875320 279.561798,162.131348 284.501221,169.657516 
	C285.716888,171.509827 288.269958,173.603912 290.246887,173.643265 
	C298.796814,173.813400 307.679016,175.474823 315.536591,170.036530 
	C316.918793,153.344009 316.928131,153.335403 306.045013,141.541458 
	C302.860748,138.090698 300.280579,133.572327 294.287567,134.959503 
	C293.627930,135.112198 292.240448,134.242554 291.949951,133.535202 
	C289.425903,127.389084 284.263489,127.801643 279.045563,128.004395 
	C275.063110,128.159134 271.011627,128.465408 267.094788,127.935669 
	C260.992188,127.110291 257.333801,129.676331 254.980133,135.320374 
	C253.628860,137.131668 252.392853,138.642120 250.654053,140.336975 
	C246.278656,141.025146 242.415756,141.681091 238.526855,141.929657 
	C237.507065,141.994827 235.731171,140.976624 235.506409,140.134583 
	C235.194183,138.964935 235.658539,137.164703 236.480270,136.263336 
	C237.034927,135.654938 238.999832,135.701248 239.955017,136.192062 
	C245.868530,139.230637 247.902130,138.911987 251.488739,133.770142 
	C252.736923,131.993896 253.776596,130.452255 255.184509,128.871567 
	C257.475616,125.663277 260.212555,124.741547 263.924347,124.910759 
	C270.906006,125.229034 277.912598,124.992744 284.908722,125.009804 
	C286.234894,125.013039 288.375916,124.628296 288.758209,125.259727 
	C291.897583,130.445084 298.527771,130.411438 301.995728,133.497192 
	C311.481293,141.937363 322.695374,150.624878 318.654297,166.361938 
	C318.533600,166.832016 318.451324,167.452042 318.657288,167.839355 
	C319.245331,168.945114 319.991516,169.966766 320.675476,171.021484 
	C321.407410,170.018677 322.725647,169.041992 322.771729,168.008621 
	C322.994049,163.021194 323.202606,157.988144 322.745117,153.033218 
	C322.493195,150.304428 321.495972,147.240906 319.825165,145.125839 
	C315.600861,139.778336 311.302216,134.278610 306.089203,129.986618 
	C301.523315,126.227402 295.676575,124.021889 290.381348,121.156425 
	C290.121338,121.015724 289.724579,121.122826 289.391479,121.122795 
	C278.564026,121.121605 267.733002,120.987564 256.913269,121.276176 
	C255.417755,121.316071 253.978058,123.448227 252.284912,124.835571 
	C251.012573,126.355774 249.967834,127.652184 248.574310,129.084610 
	C244.947357,130.410446 241.712845,131.767258 238.353210,132.645340 
	C237.702881,132.815308 236.192215,131.267136 235.768341,130.229660 
	C235.432449,129.407455 235.817368,127.729965 236.488632,127.199211 
	C237.326553,126.536667 239.283890,126.046875 239.897476,126.544159 
	C244.066422,129.922913 246.037949,127.467484 247.764648,123.935089 
M278.074921,282.469116 
	C272.228973,282.469116 266.383026,282.469116 260.120819,282.469116 
	C260.307465,284.956024 260.420990,286.468994 260.471832,287.146515 
	C266.150818,286.448334 271.290863,285.869843 276.408844,285.137024 
	C277.309662,285.008026 278.117981,284.233032 279.725220,283.836914 
	C280.690430,285.210449 281.655670,286.584015 282.620911,287.957550 
	C280.982178,288.325043 279.353577,288.917175 277.701599,288.991852 
	C276.275665,289.056274 274.742249,288.097504 273.397308,288.347992 
	C269.038330,289.159760 264.744171,290.319580 260.412781,291.348267 
	C260.412781,293.468964 260.412781,295.045319 260.412781,296.795135 
	C263.792877,296.795135 266.901306,296.795135 270.917358,297.044220 
	C277.156982,297.044220 283.396637,297.044220 290.006470,297.044220 
	C289.818939,294.959656 289.686005,293.482208 289.642914,293.003204 
	C285.979675,293.760406 282.837891,294.511444 279.658905,295.038452 
	C276.462738,295.568359 273.229614,295.875305 269.287598,296.167969 
	C266.586884,295.547546 265.470612,293.790833 267.106995,291.564209 
	C267.700653,290.756439 270.034180,291.067139 271.561615,291.136658 
	C275.743256,291.326935 280.002655,292.292694 284.071289,291.750519 
	C287.781067,291.256165 290.076355,286.245117 289.077881,282.160492 
	C285.779358,282.356232 282.369476,282.558563 278.074921,282.469116 
M315.754333,227.948380 
	C321.523010,227.948380 327.291687,227.948380 333.227173,227.948380 
	C333.227173,209.891953 333.227173,192.188080 333.227173,174.483124 
	C326.967957,174.483124 321.083435,174.483124 315.117493,174.483124 
	C315.117493,192.321976 315.117493,209.775177 315.754333,227.948380 
M325.738403,255.920288 
	C324.905487,257.814911 324.447205,260.020721 323.175934,261.551270 
	C317.116730,268.846130 310.895203,276.009338 304.610443,283.112335 
	C301.430542,286.706177 299.124023,291.541565 293.327423,291.831787 
	C293.164154,291.839966 293.041626,292.660614 292.752167,293.564209 
	C297.038879,294.210480 300.576080,294.691803 303.853424,290.721832 
	C311.477600,281.486267 319.620544,272.680664 327.400055,263.569977 
	C328.697235,262.050842 329.914368,259.898804 329.984833,257.995422 
	C330.274078,250.183945 330.181274,242.353958 330.020203,234.535065 
	C329.997345,233.424606 328.824585,232.337830 328.184021,231.240097 
	C327.369690,232.347717 325.887360,233.433655 325.850586,234.566513 
	C325.629364,241.382980 325.739777,248.210190 325.738403,255.920288 
M269.738190,208.188675 
	C274.086761,208.609146 272.970032,205.814056 272.745087,203.244888 
	C270.978058,203.244888 269.421326,203.244888 266.732635,203.244888 
	C267.634399,205.292496 268.260742,206.714767 269.738190,208.188675 
z"/>
<path fill="#10C4EB" opacity="1.000000" stroke="none" 
	d="
M255.483826,329.767212 
	C260.545013,329.215240 265.512207,328.678406 270.374847,329.171783 
	C272.023743,329.339111 274.714569,332.131409 274.687134,333.684601 
	C274.571045,340.260223 277.392273,347.230042 272.469849,353.414948 
	C271.697876,354.384918 272.655701,356.848602 273.019714,358.578217 
	C273.564636,361.167358 274.292114,363.718018 274.969177,366.392700 
	C270.499939,368.095276 267.932526,366.919800 267.229279,362.138550 
	C266.940247,360.173492 266.517822,358.168671 265.745941,356.356659 
	C265.294189,355.296173 264.033630,354.580261 262.067383,352.670502 
	C262.067383,358.320282 262.067383,362.390900 262.067383,366.732056 
	C259.655670,366.732056 257.761108,366.732056 255.348923,366.732056 
	C255.348923,354.429688 255.348923,342.307587 255.483826,329.767212 
M268.698151,340.558868 
	C269.330353,335.471924 267.029114,333.978485 262.235352,335.338989 
	C262.235352,339.456848 262.235352,343.523987 262.235352,347.564972 
	C268.610443,348.083832 268.610443,348.083832 268.698151,340.558868 
z"/>
<path fill="#10BEE4" opacity="1.000000" stroke="none" 
	d="
M225.264252,351.952209 
	C225.264389,344.157776 225.264389,336.854828 225.264389,329.067383 
	C227.532303,329.067383 229.539642,329.067383 231.999908,329.067383 
	C231.999908,335.962006 231.582108,342.771545 232.164948,349.494293 
	C232.487167,353.210968 229.101562,360.134521 234.954895,360.114807 
	C241.535355,360.092621 237.485046,353.023193 237.918762,349.258179 
	C238.672745,342.713135 238.128403,336.018555 238.128403,328.989258 
	C240.313614,328.989258 242.194443,328.989258 244.443710,328.989258 
	C244.443710,339.857941 244.573257,350.590912 244.373215,361.317749 
	C244.303497,365.056396 241.659348,366.814606 238.027863,366.985504 
	C236.369370,367.063568 234.703156,367.077393 233.043869,367.020294 
	C227.781448,366.839294 225.784622,365.060608 225.348480,359.917999 
	C225.138489,357.441986 225.281128,354.936066 225.264252,351.952209 
z"/>
<path fill="#10C6ED" opacity="1.000000" stroke="none" 
	d="
M293.648499,330.705322 
	C297.892670,326.920776 301.989410,327.981476 303.009064,332.715912 
	C305.418701,343.904694 307.826660,355.093872 310.320526,366.678864 
	C308.044891,366.678864 306.141357,366.678864 304.096008,366.678864 
	C303.782013,365.777069 303.202942,364.855591 303.181976,363.921661 
	C303.102936,360.394165 301.617218,359.115234 297.931519,359.138367 
	C294.429901,359.160400 293.199646,360.493164 292.981201,363.684692 
	C292.633789,368.760925 289.020020,366.607697 285.785248,366.991669 
	C288.445526,354.665558 290.989594,342.877960 293.648499,330.705322 
M300.790436,353.283295 
	C300.079834,348.742584 299.369263,344.201904 298.658661,339.661194 
	C298.283417,339.687836 297.908173,339.714508 297.532898,339.741150 
	C296.705109,344.237946 295.877319,348.734772 294.947418,353.786255 
	C296.908447,353.786255 298.512604,353.786255 300.790436,353.283295 
z"/>
<path fill="#10C6ED" opacity="1.000000" stroke="none" 
	d="
M211.166229,347.609497 
	C212.584991,354.144623 213.924652,360.265625 215.284424,366.478516 
	C210.910431,367.673920 207.998688,367.406219 207.873550,362.249725 
	C207.787399,358.700134 205.018311,359.397919 202.745575,359.246094 
	C200.311249,359.083496 198.250031,359.461731 198.224960,362.388153 
	C198.178085,367.863922 194.877426,367.372253 190.843735,366.633911 
	C193.596817,353.918091 196.291168,341.473572 199.022827,328.856689 
	C201.751175,328.856689 204.186234,328.856689 207.130310,328.856689 
	C208.442093,334.936432 209.764603,341.065887 211.166229,347.609497 
M202.638000,353.891083 
	C204.534454,353.943115 206.475006,354.163361 205.804047,351.134369 
	C204.962204,347.333984 204.279861,343.498260 203.528671,339.677795 
	C201.773590,344.076782 200.982468,348.520020 200.309891,352.981140 
	C200.276932,353.199677 201.280945,353.574585 202.638000,353.891083 
z"/>
<path fill="#05313A" opacity="1.000000" stroke="none" 
	d="
M262.300171,209.885574 
	C264.048279,211.238373 265.796356,212.591171 267.953918,214.260818 
	C268.378723,213.631973 269.086395,212.584366 270.077606,211.117050 
	C270.686981,212.401566 271.188934,213.459610 272.160706,215.508026 
	C273.992828,212.364777 275.432861,209.894165 277.072876,207.080490 
	C286.495880,207.080490 296.323395,206.867233 306.126923,207.256943 
	C308.134460,207.336746 310.052185,209.675858 312.011292,210.973541 
	C310.101318,212.312332 308.356842,214.216324 306.236633,214.837234 
	C303.934601,215.511429 301.268768,215.162842 298.786560,214.957932 
	C293.253723,214.501160 288.287689,214.951981 284.839172,220.292465 
	C284.257446,221.193390 281.574463,220.680527 279.879944,220.937210 
	C278.436615,221.155823 276.727356,221.176422 275.701355,221.994217 
	C275.108398,222.466858 275.161865,225.023483 275.761719,225.442001 
	C276.851196,226.202118 278.932495,226.738571 279.951660,226.181839 
	C283.303711,224.350662 286.333435,221.938461 289.555176,219.854950 
	C290.735535,219.091568 292.084686,218.166031 293.394745,218.103119 
	C297.882935,217.887589 302.424103,217.693207 306.869080,218.181915 
	C308.688568,218.381958 310.313965,220.347076 312.027679,221.509232 
	C310.318451,222.689301 308.633911,223.908508 306.879486,225.017059 
	C306.521088,225.243515 305.885559,225.134491 305.402649,225.045288 
	C297.297241,223.548431 291.435547,226.729034 286.879913,233.380951 
	C282.599243,239.631378 277.110382,242.581696 269.548889,238.457062 
	C268.883850,238.094299 266.856628,239.016174 266.370544,239.862900 
	C265.833527,240.798370 265.906525,242.645889 266.526978,243.517105 
	C267.085144,244.300858 268.765869,244.626480 269.911224,244.550156 
	C270.956085,244.480530 272.091553,242.977005 272.939301,243.173645 
	C281.906342,245.253586 286.036560,238.696671 290.931427,233.404297 
	C296.942078,226.905533 307.866486,226.022018 314.685516,231.520187 
	C315.315521,232.028168 315.619385,233.201294 315.685760,234.094482 
	C315.833496,236.083008 315.401917,238.157303 315.791168,240.078140 
	C318.115540,251.548950 312.694763,259.820587 304.904877,267.182953 
	C304.422119,267.639191 304.005707,268.570099 303.541870,268.581116 
	C296.893982,268.738617 291.060089,273.858917 284.135162,271.850952 
	C282.686157,271.430847 281.461487,270.130920 280.217651,269.131622 
	C277.662598,267.078949 275.291473,264.761932 272.568298,262.974731 
	C271.713104,262.413483 269.601837,262.767090 268.755707,263.499420 
	C268.048096,264.111908 267.795258,266.279816 268.341278,267.048492 
	C269.014160,267.995819 271.284760,269.016418 271.888855,268.597565 
	C274.666748,266.671570 275.752472,268.746338 277.198303,270.287689 
	C282.376526,275.808075 291.143036,276.900940 297.513550,272.842499 
	C297.925995,272.579712 298.379822,272.163818 298.806580,272.173248 
	C309.629822,272.412750 311.565033,261.838440 317.643250,256.372406 
	C318.968842,255.180328 318.271912,251.618729 318.313599,249.145172 
	C318.395050,244.314682 318.147583,239.469193 318.464569,234.658142 
	C318.554688,233.290237 320.123657,232.019745 321.014435,230.704575 
	C321.624573,230.975311 322.234711,231.246033 322.844849,231.516754 
	C322.844849,239.795746 322.938019,248.076889 322.746613,256.351471 
	C322.717133,257.625885 321.548828,259.014496 320.619568,260.105286 
	C313.381989,268.601227 306.126862,277.083923 298.735962,285.445923 
	C297.492737,286.852448 295.568420,287.657043 293.834595,288.823303 
	C292.660309,284.238678 291.739685,280.644470 290.703491,276.598999 
	C285.141876,280.561157 280.024689,277.424408 275.045258,278.804565 
	C270.538696,280.053680 265.177551,278.219391 258.963623,277.627594 
	C258.274445,280.526611 257.449432,283.996979 256.339905,288.664215 
	C254.890121,287.690430 253.481537,286.744293 252.439423,285.256836 
	C256.180634,278.461884 258.021271,271.927979 256.812256,264.925262 
	C258.195068,267.196716 258.983887,269.478943 260.326904,271.366882 
	C261.100250,272.454010 262.770203,272.903351 264.036560,273.639771 
	C264.571533,272.120331 266.011841,269.795959 265.493561,269.213043 
	C262.297974,265.618958 258.660736,262.417542 255.170380,259.085571 
	C254.556442,254.613235 253.942505,250.140900 253.338425,245.740433 
	C255.852249,242.482422 258.805908,238.654404 261.901733,234.328674 
	C262.043884,233.830994 262.055756,233.446442 262.493652,233.359711 
	C266.126160,233.614166 269.315552,234.026459 272.517944,234.262177 
	C273.833496,234.359024 275.768311,234.558731 276.355835,233.840256 
	C277.063385,232.974960 277.183594,230.773193 276.539337,229.912720 
	C275.959045,229.137665 274.006378,229.254349 272.652985,229.220947 
	C269.393341,229.140549 266.130188,229.202560 263.224304,229.029755 
	C263.772003,227.573029 263.963867,226.293701 264.335114,224.848053 
	C264.716797,224.386124 264.751343,224.071991 265.034424,223.712189 
	C265.887665,223.915909 266.337158,224.362915 266.759369,224.338455 
	C268.215240,224.254135 269.877808,224.360901 271.018951,223.666870 
	C271.576935,223.327515 271.624664,220.664581 271.083618,220.312271 
	C269.961517,219.581650 268.298126,219.576477 266.845154,219.498657 
	C265.936890,219.450027 265.006592,219.812927 264.098816,219.704926 
	C263.890015,218.934479 263.668579,218.450256 263.280182,217.613693 
	C262.198456,214.923035 261.283722,212.584732 260.851135,210.152863 
	C261.655609,210.001404 261.977875,209.943497 262.300171,209.885574 
M265.092285,255.128937 
	C265.208221,255.264877 265.324127,255.400833 265.023102,256.090698 
	C265.121155,257.701538 265.219208,259.312408 265.317291,260.923248 
	C266.647217,260.799225 268.034790,260.876312 269.296509,260.514435 
	C273.555817,259.292786 277.487091,258.580505 281.060577,262.464844 
	C287.116211,269.047302 294.971893,268.829926 300.823578,262.037170 
	C302.467224,260.129211 303.573395,257.758331 304.999237,255.483002 
	C306.861847,255.310272 308.931610,255.118332 311.288849,254.899719 
	C311.288849,251.316254 311.288849,248.177872 311.288849,245.039490 
	C311.288849,241.782761 311.288849,238.526031 311.288849,233.863678 
	C305.892975,235.007690 300.943726,235.075378 297.083191,237.159592 
	C293.432922,239.130325 291.882721,244.755310 286.038513,243.276520 
	C285.330383,243.097336 283.948090,244.297028 283.348389,245.177765 
	C278.534058,252.247971 271.649719,250.293839 264.999542,249.601700 
	C263.528503,249.448593 261.901459,249.434448 260.575348,249.947891 
	C260.076904,250.140869 259.758850,252.715408 260.171692,252.992447 
	C261.488770,253.876282 263.187592,254.191238 265.092285,255.128937 
z"/>
<path fill="#525251" opacity="1.000000" stroke="none" 
	d="
M248.819885,278.873840 
	C248.192520,276.925354 247.739594,274.895325 246.879715,273.055511 
	C246.250488,271.709198 245.251083,270.385040 244.069580,269.531372 
	C243.667709,269.240997 241.469986,270.310425 241.378754,270.943726 
	C241.171066,272.385620 241.423233,274.114746 242.091522,275.417908 
	C243.701370,278.557068 245.657471,281.518707 247.358597,284.966003 
	C242.971191,287.043365 238.641846,288.580597 234.473709,290.472870 
	C233.605499,290.867035 232.642181,292.863098 232.952759,293.608215 
	C233.393860,294.666504 235.058136,296.007050 236.052765,295.897095 
	C239.304321,295.537689 242.489304,294.576050 245.692490,293.847656 
	C246.692444,299.331268 243.895630,303.363281 238.304123,304.114288 
	C233.082550,304.815613 226.853470,300.343384 226.679169,295.468018 
	C226.635666,294.250793 227.776825,292.890381 228.599426,291.760223 
	C232.520767,286.372742 233.761795,280.588135 230.951828,274.388031 
	C227.609390,267.013031 218.707062,264.376251 211.936981,268.801819 
	C210.882294,269.491241 210.651047,271.440338 210.039032,272.806946 
	C211.259857,273.302185 212.684296,274.472900 213.666611,274.176849 
	C218.153290,272.824554 222.568054,271.384399 225.601532,276.495422 
	C228.182587,280.844147 226.795441,284.893127 223.759613,288.425446 
	C220.377777,292.360382 213.940918,293.498352 209.078613,291.186127 
	C203.993317,288.767792 201.518082,284.273346 200.137253,279.169891 
	C197.908752,270.933563 199.028107,262.984161 203.035843,255.484955 
	C205.084106,251.652283 207.069351,248.240799 212.743042,248.714691 
	C217.470490,249.109558 221.504944,244.495193 221.651367,239.654648 
	C221.695267,238.203049 220.235916,236.705978 219.465240,235.229736 
	C218.363159,236.236603 217.210510,237.194275 216.171158,238.262177 
	C214.709442,239.764038 213.223328,242.703079 211.941910,242.600510 
	C209.622940,242.414886 206.713150,240.975372 205.341675,239.109833 
	C199.934418,231.754623 204.717651,221.918869 213.867645,220.943527 
	C220.848465,220.199402 227.333542,223.820175 230.639328,230.307571 
	C234.216904,237.328384 233.070312,245.900620 228.000992,251.800354 
	C226.299240,253.780884 221.629944,255.717773 225.442230,258.781189 
	C228.889252,261.551056 231.119598,257.218628 232.696274,254.947739 
	C235.202454,251.338058 236.885025,247.156555 239.040253,242.975845 
	C243.992340,244.155380 246.946152,247.956085 248.997421,252.734100 
	C249.836746,254.689194 250.701218,256.633484 251.376709,258.862152 
	C249.588165,259.051697 247.977432,258.897369 246.366058,258.890015 
	C244.753006,258.882690 243.035294,258.737396 241.587372,259.265930 
	C241.135391,259.430908 241.153366,262.610199 241.395416,262.671356 
	C243.051483,263.089813 244.841232,262.929016 246.556259,263.175232 
	C249.847992,263.647705 253.118744,264.266510 256.050751,264.475403 
	C252.910339,263.111176 251.660843,263.616699 251.379196,267.050323 
	C251.052383,271.034637 249.717300,274.936310 248.819885,278.873840 
z"/>
<path fill="#505353" opacity="1.000000" stroke="none" 
	d="
M263.447174,217.966049 
	C263.668579,218.450256 263.890015,218.934479 263.622925,219.732239 
	C256.934174,219.670502 250.736801,219.209183 244.530914,219.001297 
	C243.448196,218.965012 241.960800,219.737518 241.344788,220.616287 
	C240.854599,221.315598 241.001862,223.159409 241.600800,223.749939 
	C242.368698,224.507019 243.881882,224.829147 245.058182,224.795044 
	C249.933640,224.653687 254.803162,224.307449 259.346252,224.371857 
	C258.712860,226.451752 258.408051,228.196213 257.642273,230.015640 
	C253.013397,229.628250 248.852936,229.047318 244.672470,228.783798 
	C243.575302,228.714630 242.062408,229.347122 241.396622,230.181213 
	C240.858307,230.855591 240.880478,232.652893 241.425323,233.343552 
	C242.089645,234.185654 243.585815,234.853226 244.679230,234.794617 
	C250.478836,234.483856 256.264954,233.921585 262.055756,233.446442 
	C262.055756,233.446442 262.043884,233.830994 261.936462,233.990082 
	C258.164001,233.683014 255.357635,234.625488 252.670715,237.605530 
	C248.797943,241.900757 239.272583,238.838425 237.700424,233.169540 
	C234.251999,220.735046 226.453537,215.066971 211.865158,214.704651 
	C212.335556,212.149597 213.134399,209.650543 213.178787,207.138153 
	C213.245316,203.372055 213.604980,199.303802 212.386917,195.881134 
	C209.006165,186.381241 212.683899,178.836319 218.410202,172.076202 
	C225.563370,163.631592 236.420029,164.007141 244.042847,172.682922 
	C243.155350,173.902954 242.056183,174.709259 241.163223,175.701202 
	C240.166534,176.808380 238.782730,178.033112 238.669678,179.304672 
	C238.595261,180.141815 240.642944,182.037094 241.431107,181.882446 
	C242.687729,181.635895 243.778000,180.157684 244.764526,179.045837 
	C245.489014,178.229294 245.934906,177.165558 246.803314,176.586029 
	C247.932907,180.550400 248.764114,184.140762 249.018158,187.861389 
	C246.572327,187.677277 244.710617,187.187225 242.832458,187.112976 
	C241.664337,187.066772 240.026779,187.290955 239.413223,188.050659 
	C238.786606,188.826508 238.636139,190.860184 239.215195,191.519989 
	C239.973938,192.384506 241.639694,192.716736 242.938034,192.775421 
	C244.468643,192.844620 246.023529,192.376556 247.223877,192.345062 
	C246.153854,193.437531 245.486252,194.383286 244.688385,195.202133 
	C243.424316,196.499466 242.261200,198.390533 240.719269,198.817932 
	C237.575165,199.689438 233.964157,200.692596 230.989777,199.923431 
	C226.802734,198.840714 226.864929,194.644043 226.737793,190.827255 
	C226.680435,189.105270 225.161209,187.431992 224.305267,185.736603 
	C223.231506,187.355408 221.415726,188.883652 221.205292,190.607819 
	C219.914062,201.186966 227.350571,208.361771 237.714111,206.869629 
	C247.538406,205.455109 252.638168,207.954895 257.057617,216.753342 
	C258.820099,220.262146 260.773529,220.424118 263.447174,217.966049 
z"/>
<path fill="#525150" opacity="1.000000" stroke="none" 
	d="
M168.559509,197.686218 
	C173.327026,193.564758 178.655167,192.770248 183.005020,195.275848 
	C188.087189,198.203262 188.152542,203.452606 183.483948,206.893066 
	C182.192123,207.845047 181.865921,210.107300 181.096680,211.768402 
	C182.884598,211.802277 184.991180,212.473709 186.408157,211.765457 
	C194.922150,207.509933 194.764557,195.479950 185.905563,190.221405 
	C180.818649,187.201874 179.409439,182.813446 179.551544,177.672775 
	C179.726624,171.340134 182.789963,166.522949 188.814026,164.090500 
	C194.170654,161.927582 199.041977,163.246582 202.996750,167.256378 
	C207.742249,172.067856 208.732925,177.776459 206.303223,184.418686 
	C203.450745,182.866943 200.984314,181.178848 198.261841,180.211227 
	C197.141510,179.813049 195.470078,180.965500 194.049316,181.412628 
	C194.650665,182.782089 194.903687,184.974030 195.905365,185.398270 
	C212.274200,192.331039 209.520187,210.476288 201.908432,220.397934 
	C200.800476,221.842117 199.759995,223.338074 198.318253,225.318298 
	C192.198013,220.783737 185.158417,220.809799 177.734283,221.258789 
	C169.312698,221.768097 163.376755,211.242172 166.310822,201.979675 
	C166.755035,200.577362 167.627029,199.310562 168.559509,197.686218 
z"/>
<path fill="#505151" opacity="1.000000" stroke="none" 
	d="
M251.280212,134.004776 
	C247.902130,138.911987 245.868530,139.230637 239.955017,136.192062 
	C238.999832,135.701248 237.034927,135.654938 236.480270,136.263336 
	C235.658539,137.164703 235.194183,138.964935 235.506409,140.134583 
	C235.731171,140.976624 237.507065,141.994827 238.526855,141.929657 
	C242.415756,141.681091 246.278656,141.025146 250.446945,140.778687 
	C250.588318,143.046661 250.433990,145.057312 249.767319,147.183014 
	C246.243851,146.901871 243.239258,146.439911 240.218582,146.139954 
	C238.901276,146.009155 237.256302,145.771317 236.312195,146.404816 
	C235.602585,146.880981 235.183044,149.226227 235.680161,149.753571 
	C236.607422,150.737167 238.254395,151.309845 239.676010,151.500488 
	C242.137238,151.830566 244.655029,151.738846 247.149094,151.824036 
	C242.761398,157.582108 237.394440,160.619324 229.707245,160.233154 
	C223.191757,159.905869 218.847931,163.004700 212.938599,169.165924 
	C208.873535,165.628098 204.814835,162.189621 200.892410,158.602142 
	C200.117294,157.893204 199.642075,156.659164 199.411530,155.585098 
	C198.208267,149.979523 201.782852,142.865005 207.107773,140.033173 
	C212.385101,137.226654 218.654343,138.264572 223.130524,142.706940 
	C223.718643,143.290604 224.116684,144.268188 224.798920,144.510117 
	C226.009933,144.939499 227.371323,144.944809 228.669785,145.127563 
	C228.850616,143.786758 229.669556,141.968323 229.091263,141.195740 
	C227.431213,138.977936 225.521744,136.535339 223.130814,135.369049 
	C219.186768,133.445129 219.414124,130.913055 220.660400,127.675758 
	C224.391815,117.983147 236.010162,114.866112 244.079712,121.406189 
	C245.089157,122.224304 246.091187,123.051544 247.430649,123.904823 
	C246.037949,127.467484 244.066422,129.922913 239.897476,126.544159 
	C239.283890,126.046875 237.326553,126.536667 236.488632,127.199211 
	C235.817368,127.729965 235.432449,129.407455 235.768341,130.229660 
	C236.192215,131.267136 237.702881,132.815308 238.353210,132.645340 
	C241.712845,131.767258 244.947357,130.410446 248.701416,129.425385 
	C249.878281,131.088364 250.579254,132.546570 251.280212,134.004776 
z"/>
<path fill="#052F39" opacity="1.000000" stroke="none" 
	d="
M255.095398,135.019531 
	C257.333801,129.676331 260.992188,127.110291 267.094788,127.935669 
	C271.011627,128.465408 275.063110,128.159134 279.045563,128.004395 
	C284.263489,127.801643 289.425903,127.389084 291.949951,133.535202 
	C292.240448,134.242554 293.627930,135.112198 294.287567,134.959503 
	C300.280579,133.572327 302.860748,138.090698 306.045013,141.541458 
	C316.928131,153.335403 316.918793,153.344009 315.536591,170.036530 
	C307.679016,175.474823 298.796814,173.813400 290.246887,173.643265 
	C288.269958,173.603912 285.716888,171.509827 284.501221,169.657516 
	C279.561798,162.131348 272.745270,160.875320 264.172089,160.566849 
	C256.576416,160.293594 253.266632,164.778061 248.549927,168.834702 
	C246.854904,167.154999 245.462250,165.358795 244.521194,164.145065 
	C247.164551,160.107864 249.766846,156.133408 252.286224,151.694992 
	C254.691040,148.732254 257.596466,146.522293 259.570282,143.668106 
	C262.663116,139.195877 265.556244,135.643509 271.502655,139.375824 
	C272.102081,139.752060 274.042786,139.107300 274.448151,138.407532 
	C275.015533,137.428040 275.108673,135.793411 274.674377,134.740204 
	C274.354523,133.964523 272.577332,132.997452 271.943451,133.268936 
	C266.858582,135.446762 259.834625,134.353256 257.576843,141.521988 
	C257.388489,142.120041 256.365204,142.455139 255.798523,142.497559 
	C255.609924,139.728317 255.352661,137.373932 255.095398,135.019531 
M263.218719,149.047272 
	C260.436462,149.294189 259.176544,150.961212 260.116211,153.458237 
	C261.123810,156.135803 262.962555,155.077805 265.321838,154.586792 
	C270.482971,153.512726 275.989929,152.221802 280.300140,157.683044 
	C281.746368,159.515488 284.983307,159.938675 287.407043,160.993835 
	C288.606079,161.515808 290.461548,161.677505 290.921844,162.569092 
	C294.995544,170.460770 301.735657,169.900742 309.589294,168.662430 
	C307.326874,161.621613 313.994659,152.068420 302.316101,148.366684 
	C301.948883,148.250290 301.887268,147.210724 301.658386,146.611008 
	C297.725189,136.304672 286.351959,133.786392 278.929962,141.752960 
	C276.103943,144.786331 273.110016,145.307678 269.573029,143.771240 
	C265.312317,141.920441 264.480072,142.442062 264.068665,148.254974 
	C264.043610,148.511688 264.018524,148.768417 263.218719,149.047272 
z"/>
<path fill="#535352" opacity="1.000000" stroke="none" 
	d="
M201.555878,247.180389 
	C196.304703,254.182236 193.787643,261.709564 193.627380,270.070374 
	C193.534851,274.896759 191.594162,276.098358 186.995789,274.252197 
	C182.772064,272.556488 180.515778,269.350128 179.890564,264.934998 
	C189.301529,260.430664 192.942917,254.479507 191.088379,246.256912 
	C190.791977,244.942764 188.998077,243.966385 187.896484,242.833862 
	C187.197128,244.132111 186.195801,245.361145 185.878143,246.746902 
	C185.516632,248.324036 186.362961,250.405502 185.622223,251.619965 
	C184.170578,253.999969 182.253281,257.238434 180.026901,257.699738 
	C177.525620,258.217987 173.713821,256.818909 171.805710,254.916443 
	C167.181183,250.305634 167.504837,239.511246 171.679565,233.432251 
	C175.766617,227.480911 182.958817,225.271072 190.252930,227.868530 
	C194.492035,229.378098 197.783554,231.596817 198.323746,236.823364 
	C198.578766,239.290894 200.519455,241.559021 201.528214,243.987350 
	C201.886215,244.849167 201.746109,245.917908 201.555878,247.180389 
z"/>
<path fill="#14BFE4" opacity="1.000000" stroke="none" 
	d="
M255.729828,142.912399 
	C256.365204,142.455139 257.388489,142.120041 257.576843,141.521988 
	C259.834625,134.353256 266.858582,135.446762 271.943451,133.268936 
	C272.577332,132.997452 274.354523,133.964523 274.674377,134.740204 
	C275.108673,135.793411 275.015533,137.428040 274.448151,138.407532 
	C274.042786,139.107300 272.102081,139.752060 271.502655,139.375824 
	C265.556244,135.643509 262.663116,139.195877 259.570282,143.668106 
	C257.596466,146.522293 254.691040,148.732254 252.010895,151.525055 
	C250.519058,151.859634 249.219620,151.900223 247.534637,151.882416 
	C244.655029,151.738846 242.137238,151.830566 239.676010,151.500488 
	C238.254395,151.309845 236.607422,150.737167 235.680161,149.753571 
	C235.183044,149.226227 235.602585,146.880981 236.312195,146.404816 
	C237.256302,145.771317 238.901276,146.009155 240.218582,146.139954 
	C243.239258,146.439911 246.243851,146.901871 250.014496,147.114502 
	C252.425949,145.591431 254.077881,144.251907 255.729828,142.912399 
z"/>
<path fill="#14C0E6" opacity="1.000000" stroke="none" 
	d="
M256.398193,264.824646 
	C253.118744,264.266510 249.847992,263.647705 246.556259,263.175232 
	C244.841232,262.929016 243.051483,263.089813 241.395416,262.671356 
	C241.153366,262.610199 241.135391,259.430908 241.587372,259.265930 
	C243.035294,258.737396 244.753006,258.882690 246.366058,258.890015 
	C247.977432,258.897369 249.588165,259.051697 251.753967,259.026184 
	C253.121887,258.881805 253.934982,258.852875 254.959229,258.954742 
	C258.660736,262.417542 262.297974,265.618958 265.493561,269.213043 
	C266.011841,269.795959 264.571533,272.120331 264.036560,273.639771 
	C262.770203,272.903351 261.100250,272.454010 260.326904,271.366882 
	C258.983887,269.478943 258.195068,267.196716 256.794189,264.946411 
	C256.414490,264.813019 256.398193,264.824646 256.398193,264.824646 
z"/>
<path fill="#052E36" opacity="1.000000" stroke="none" 
	d="
M262.160828,209.519592 
	C261.977875,209.943497 261.655609,210.001404 260.631042,209.927139 
	C256.171448,206.522293 252.414139,203.249619 249.175568,200.428757 
	C249.805771,197.787079 250.506927,194.847931 251.710449,191.862976 
	C254.088364,192.098907 255.958328,192.541672 257.841431,192.607132 
	C259.152130,192.652710 260.831116,192.573410 261.686981,191.810776 
	C262.332336,191.235703 262.443176,188.834152 261.891144,188.405396 
	C260.844788,187.592728 259.162689,187.415756 257.724945,187.337387 
	C256.036224,187.245331 254.326462,187.539215 252.967072,187.299011 
	C253.893326,181.874832 254.393478,176.837479 249.997177,172.960526 
	C255.734344,164.660080 265.264618,160.896820 274.347870,164.308899 
	C277.320618,165.425583 279.755188,168.660034 281.802582,171.399338 
	C285.123474,175.842545 289.154144,177.536621 294.634613,176.980621 
	C298.752777,176.562836 302.983032,176.599487 307.093018,177.060883 
	C308.820770,177.254807 310.367096,179.065063 311.995880,180.140533 
	C310.368011,181.422714 308.800873,183.708740 307.101715,183.811478 
	C300.136383,184.232681 293.121155,184.185410 286.147247,183.842972 
	C284.518433,183.762970 282.600281,182.148560 281.477631,180.719711 
	C279.077759,177.665268 276.229584,176.770432 272.428131,176.813843 
	C268.928802,176.853821 265.430206,175.702179 261.903778,175.355194 
	C260.781738,175.244781 258.929108,175.716263 258.553497,176.481995 
	C258.002502,177.605255 258.059998,179.464752 258.667725,180.562332 
	C259.062439,181.275177 261.055817,181.696396 262.062225,181.381927 
	C269.292786,179.122696 276.117615,177.956924 281.638000,185.111740 
	C282.537201,186.277161 284.735840,186.902298 286.363251,186.960846 
	C292.347687,187.176147 298.344452,187.045090 304.336578,187.050995 
	C305.501343,187.052139 306.879700,186.692612 307.783478,187.186951 
	C309.346039,188.041580 310.614105,189.434586 312.005707,190.601761 
	C310.659454,191.764801 309.347046,193.886017 307.961426,193.934937 
	C299.152527,194.246109 290.326569,194.157883 281.509094,194.019196 
	C280.574768,194.004501 279.670563,192.792236 278.732544,192.165237 
	C275.540924,190.031967 272.435059,187.738815 269.078888,185.904922 
	C268.205109,185.427475 265.903839,186.000839 265.400513,186.805801 
	C264.782959,187.793442 264.940399,189.781937 265.576355,190.856140 
	C266.002533,191.575989 268.405273,192.097748 268.958984,191.610947 
	C272.346191,188.633011 274.149567,191.249374 275.802338,193.449554 
	C278.145050,196.568222 281.036499,197.488571 284.843323,197.320236 
	C291.156006,197.041092 297.490021,197.244614 303.815063,197.245255 
	C304.647308,197.245331 305.627197,196.962936 306.284119,197.303085 
	C308.259491,198.325867 310.109009,199.591797 312.007629,200.762863 
	C310.134064,201.853271 308.289154,203.824127 306.382111,203.886185 
	C296.575806,204.205307 286.753510,204.034103 277.004791,204.034103 
	C275.557617,201.420792 274.166870,198.909470 272.409912,195.736786 
	C271.345215,197.561539 270.697876,198.670944 269.821045,200.173721 
	C269.197144,198.706909 268.740509,197.633255 268.077789,196.075134 
	C265.947418,198.503036 264.163055,200.536591 261.939941,203.070145 
	C262.314148,203.571732 263.016724,204.513397 263.706757,205.438278 
	C263.206543,206.541061 262.614044,207.847336 262.160828,209.519592 
z"/>
<path fill="#04333D" opacity="1.000000" stroke="none" 
	d="
M315.435913,227.588379 
	C315.117493,209.775177 315.117493,192.321976 315.117493,174.483124 
	C321.083435,174.483124 326.967957,174.483124 333.227173,174.483124 
	C333.227173,192.188080 333.227173,209.891953 333.227173,227.948380 
	C327.291687,227.948380 321.523010,227.948380 315.435913,227.588379 
M329.961090,195.501648 
	C329.961090,189.910950 329.961090,184.320251 329.961090,178.683044 
	C325.861023,178.683044 322.458069,178.683044 318.961853,178.683044 
	C318.961853,193.911163 318.961853,208.777542 318.961853,223.687576 
	C322.768738,223.687576 326.176575,223.687576 329.960876,223.687576 
	C329.960876,214.423141 329.960876,205.462006 329.961090,195.501648 
z"/>
<path fill="#05313B" opacity="1.000000" stroke="none" 
	d="
M252.512527,124.611778 
	C253.978058,123.448227 255.417755,121.316071 256.913269,121.276176 
	C267.733002,120.987564 278.564026,121.121605 289.391479,121.122795 
	C289.724579,121.122826 290.121338,121.015724 290.381348,121.156425 
	C295.676575,124.021889 301.523315,126.227402 306.089203,129.986618 
	C311.302216,134.278610 315.600861,139.778336 319.825165,145.125839 
	C321.495972,147.240906 322.493195,150.304428 322.745117,153.033218 
	C323.202606,157.988144 322.994049,163.021194 322.771729,168.008621 
	C322.725647,169.041992 321.407410,170.018677 320.675476,171.021484 
	C319.991516,169.966766 319.245331,168.945114 318.657288,167.839355 
	C318.451324,167.452042 318.533600,166.832016 318.654297,166.361938 
	C322.695374,150.624878 311.481293,141.937363 301.995728,133.497192 
	C298.527771,130.411438 291.897583,130.445084 288.758209,125.259727 
	C288.375916,124.628296 286.234894,125.013039 284.908722,125.009804 
	C277.912598,124.992744 270.906006,125.229034 263.924347,124.910759 
	C260.212555,124.741547 257.475616,125.663277 255.190338,128.504623 
	C254.056122,126.988411 253.284332,125.800095 252.512527,124.611778 
z"/>
<path fill="#043039" opacity="1.000000" stroke="none" 
	d="
M325.738770,255.477051 
	C325.739777,248.210190 325.629364,241.382980 325.850586,234.566513 
	C325.887360,233.433655 327.369690,232.347717 328.184021,231.240097 
	C328.824585,232.337830 329.997345,233.424606 330.020203,234.535065 
	C330.181274,242.353958 330.274078,250.183945 329.984833,257.995422 
	C329.914368,259.898804 328.697235,262.050842 327.400055,263.569977 
	C319.620544,272.680664 311.477600,281.486267 303.853424,290.721832 
	C300.576080,294.691803 297.038879,294.210480 292.752167,293.564209 
	C293.041626,292.660614 293.164154,291.839966 293.327423,291.831787 
	C299.124023,291.541565 301.430542,286.706177 304.610443,283.112335 
	C310.895203,276.009338 317.116730,268.846130 323.175934,261.551270 
	C324.447205,260.020721 324.905487,257.814911 325.738770,255.477051 
z"/>
<path fill="#05414E" opacity="1.000000" stroke="none" 
	d="
M270.009705,296.795135 
	C266.901306,296.795135 263.792877,296.795135 260.412781,296.795135 
	C260.412781,295.045319 260.412781,293.468964 260.412781,291.348267 
	C264.744171,290.319580 269.038330,289.159760 273.397308,288.347992 
	C274.742249,288.097504 276.275665,289.056274 277.701599,288.991852 
	C279.353577,288.917175 280.982178,288.325043 282.620911,287.957550 
	C281.655670,286.584015 280.690430,285.210449 279.338654,283.629852 
	C278.929565,283.201843 278.932068,282.981232 278.959625,282.760895 
	C282.369476,282.558563 285.779358,282.356232 289.077881,282.160492 
	C290.076355,286.245117 287.781067,291.256165 284.071289,291.750519 
	C280.002655,292.292694 275.743256,291.326935 271.561615,291.136658 
	C270.034180,291.067139 267.700653,290.756439 267.106995,291.564209 
	C265.470612,293.790833 266.586884,295.547546 269.651672,296.352783 
	C270.015747,296.537567 270.009705,296.795135 270.009705,296.795135 
z"/>
<path fill="#F6F5F2" opacity="1.000000" stroke="none" 
	d="
M256.050751,264.475403 
	C256.398193,264.824646 256.414490,264.813019 256.432587,264.791870 
	C258.021271,271.927979 256.180634,278.461884 252.486481,284.846497 
	C251.134460,283.165680 250.101883,281.353790 248.944580,279.207886 
	C249.717300,274.936310 251.052383,271.034637 251.379196,267.050323 
	C251.660843,263.616699 252.910339,263.111176 256.050751,264.475403 
z"/>
<path fill="#F6F5F2" opacity="1.000000" stroke="none" 
	d="
M250.010742,173.183716 
	C254.393478,176.837479 253.893326,181.874832 252.782562,187.245605 
	C251.369629,187.616318 250.482483,187.673706 249.595322,187.731110 
	C248.764114,184.140762 247.932907,180.550400 247.172485,176.547592 
	C248.170303,175.225723 249.097290,174.316315 250.010742,173.183716 
z"/>
<path fill="#05313B" opacity="1.000000" stroke="none" 
	d="
M278.517273,282.614990 
	C278.932068,282.981232 278.929565,283.201843 278.960571,283.589600 
	C278.117981,284.233032 277.309662,285.008026 276.408844,285.137024 
	C271.290863,285.869843 266.150818,286.448334 260.471832,287.146515 
	C260.420990,286.468994 260.307465,284.956024 260.120819,282.469116 
	C266.383026,282.469116 272.228973,282.469116 278.517273,282.614990 
z"/>
<path fill="#EAE9E5" opacity="1.000000" stroke="none" 
	d="
M255.798523,142.497559 
	C254.077881,144.251907 252.425949,145.591431 250.526840,146.999451 
	C250.433990,145.057312 250.588318,143.046661 250.949738,140.594284 
	C252.392853,138.642120 253.628860,137.131668 254.980133,135.320374 
	C255.352661,137.373932 255.609924,139.728317 255.798523,142.497559 
z"/>
<path fill="#053B47" opacity="1.000000" stroke="none" 
	d="
M270.463531,296.919678 
	C270.009705,296.795135 270.015747,296.537567 270.014221,296.408752 
	C273.229614,295.875305 276.462738,295.568359 279.658905,295.038452 
	C282.837891,294.511444 285.979675,293.760406 289.642914,293.003204 
	C289.686005,293.482208 289.818939,294.959656 290.006470,297.044220 
	C283.396637,297.044220 277.156982,297.044220 270.463531,296.919678 
z"/>
<path fill="#EAE9E5" opacity="1.000000" stroke="none" 
	d="
M252.284912,124.835571 
	C253.284332,125.800095 254.056122,126.988411 254.822083,128.543671 
	C253.776596,130.452255 252.736923,131.993896 251.488739,133.770142 
	C250.579254,132.546570 249.878281,131.088364 249.050201,129.289398 
	C249.967834,127.652184 251.012573,126.355774 252.284912,124.835571 
z"/>
<path fill="#04333D" opacity="1.000000" stroke="none" 
	d="
M269.312653,208.162872 
	C268.260742,206.714767 267.634399,205.292496 266.732635,203.244888 
	C269.421326,203.244888 270.978058,203.244888 272.745087,203.244888 
	C272.970032,205.814056 274.086761,208.609146 269.312653,208.162872 
z"/>
<path fill="#010D0F" opacity="1.000000" stroke="none" 
	d="
M268.698120,340.998047 
	C268.610443,348.083832 268.610443,348.083832 262.235352,347.564972 
	C262.235352,343.523987 262.235352,339.456848 262.235352,335.338989 
	C267.029114,333.978485 269.330353,335.471924 268.698120,340.998047 
z"/>
<path fill="#02171C" opacity="1.000000" stroke="none" 
	d="
M300.453613,353.534790 
	C298.512604,353.786255 296.908447,353.786255 294.947418,353.786255 
	C295.877319,348.734772 296.705109,344.237946 297.532898,339.741150 
	C297.908173,339.714508 298.283417,339.687836 298.658661,339.661194 
	C299.369263,344.201904 300.079834,348.742584 300.453613,353.534790 
z"/>
<path fill="#02171C" opacity="1.000000" stroke="none" 
	d="
M202.220032,353.883881 
	C201.280945,353.574585 200.276932,353.199677 200.309891,352.981140 
	C200.982468,348.520020 201.773590,344.076782 203.528671,339.677795 
	C204.279861,343.498260 204.962204,347.333984 205.804047,351.134369 
	C206.475006,354.163361 204.534454,353.943115 202.220032,353.883881 
z"/>
<path fill="#10BEE5" opacity="1.000000" stroke="none" 
	d="
M264.739014,254.725891 
	C263.187592,254.191238 261.488770,253.876282 260.171692,252.992447 
	C259.758850,252.715408 260.076904,250.140869 260.575348,249.947891 
	C261.901459,249.434448 263.528503,249.448593 264.999542,249.601700 
	C271.649719,250.293839 278.534058,252.247971 283.348389,245.177765 
	C283.948090,244.297028 285.330383,243.097336 286.038513,243.276520 
	C291.882721,244.755310 293.432922,239.130325 297.083191,237.159592 
	C300.943726,235.075378 305.892975,235.007690 311.288849,233.863678 
	C311.288849,238.526031 311.288849,241.782761 311.288849,245.039490 
	C311.288849,248.177872 311.288849,251.316254 311.288849,254.899719 
	C308.931610,255.118332 306.861847,255.310272 304.999237,255.483002 
	C303.573395,257.758331 302.467224,260.129211 300.823578,262.037170 
	C294.971893,268.829926 287.116211,269.047302 281.060577,262.464844 
	C277.487091,258.580505 273.555817,259.292786 269.296509,260.514435 
	C268.034790,260.876312 266.647217,260.799225 265.317261,260.923248 
	C265.219208,259.312408 265.121155,257.701538 265.606812,255.691162 
	C268.261200,255.666321 270.395447,256.559418 272.390167,256.314850 
	C277.586914,255.677689 280.816589,258.134277 284.489838,261.462250 
	C286.685425,263.451477 291.371490,264.070435 294.438202,263.304291 
	C297.123657,262.633392 299.111237,259.168945 301.407074,256.938538 
	C301.074799,256.506958 300.742523,256.075409 300.410217,255.643829 
	C298.034882,255.419769 295.659546,255.195724 292.803650,254.926346 
	C292.803650,251.874313 292.803650,249.134140 292.803650,246.733856 
	C288.222076,245.143250 285.132935,246.525940 282.841766,249.929169 
	C280.972687,252.705444 278.395630,253.337296 275.148529,253.354568 
	C271.676361,253.373032 268.208649,254.233139 264.739014,254.725891 
M297.946381,241.201324 
	C297.010803,244.653824 296.075195,248.106308 295.036560,251.939026 
	C300.442230,251.939026 304.314331,251.939026 308.450531,251.939026 
	C308.450531,247.234558 308.450531,242.859436 308.450531,237.931747 
	C305.935730,237.931747 303.543610,237.484253 301.471710,238.105194 
	C300.292236,238.458694 299.635895,240.557739 298.778015,241.821945 
	C298.778015,241.821945 298.868317,241.745193 297.946381,241.201324 
z"/>
<path fill="#F6F5F2" opacity="1.000000" stroke="none" 
	d="
M251.208099,191.908768 
	C250.506927,194.847931 249.805771,197.787079 249.175568,200.428757 
	C252.414139,203.249619 256.171448,206.522293 260.148865,210.020706 
	C261.283722,212.584732 262.198456,214.923035 263.280182,217.613693 
	C260.773529,220.424118 258.820099,220.262146 257.057617,216.753342 
	C252.638168,207.954895 247.538406,205.455109 237.714111,206.869629 
	C227.350571,208.361771 219.914062,201.186966 221.205292,190.607819 
	C221.415726,188.883652 223.231506,187.355408 224.305267,185.736603 
	C225.161209,187.431992 226.680435,189.105270 226.737793,190.827255 
	C226.864929,194.644043 226.802734,198.840714 230.989777,199.923431 
	C233.964157,200.692596 237.575165,199.689438 240.719269,198.817932 
	C242.261200,198.390533 243.424316,196.499466 244.688385,195.202133 
	C245.486252,194.383286 246.153854,193.437531 247.452332,192.397430 
	C249.085892,192.133698 250.147003,192.021240 251.208099,191.908768 
z"/>
<path fill="#14C0E6" opacity="1.000000" stroke="none" 
	d="
M262.493652,233.359711 
	C256.264954,233.921585 250.478836,234.483856 244.679230,234.794617 
	C243.585815,234.853226 242.089645,234.185654 241.425323,233.343552 
	C240.880478,232.652893 240.858307,230.855591 241.396622,230.181213 
	C242.062408,229.347122 243.575302,228.714630 244.672470,228.783798 
	C248.852936,229.047318 253.013397,229.628250 257.981140,229.904831 
	C260.143463,229.548416 261.505981,229.377777 262.868469,229.207123 
	C266.130188,229.202560 269.393341,229.140549 272.652985,229.220947 
	C274.006378,229.254349 275.959045,229.137665 276.539337,229.912720 
	C277.183594,230.773193 277.063385,232.974960 276.355835,233.840256 
	C275.768311,234.558731 273.833496,234.359024 272.517944,234.262177 
	C269.315552,234.026459 266.126160,233.614166 262.493652,233.359711 
z"/>
<path fill="#14BFE4" opacity="1.000000" stroke="none" 
	d="
M259.674866,224.036438 
	C254.803162,224.307449 249.933640,224.653687 245.058182,224.795044 
	C243.881882,224.829147 242.368698,224.507019 241.600800,223.749939 
	C241.001862,223.159409 240.854599,221.315598 241.344788,220.616287 
	C241.960800,219.737518 243.448196,218.965012 244.530914,219.001297 
	C250.736801,219.209183 256.934174,219.670502 263.610321,220.018494 
	C265.006592,219.812927 265.936890,219.450027 266.845154,219.498657 
	C268.298126,219.576477 269.961517,219.581650 271.083618,220.312271 
	C271.624664,220.664581 271.576935,223.327515 271.018951,223.666870 
	C269.877808,224.360901 268.215240,224.254135 266.759369,224.338455 
	C266.337158,224.362915 265.887665,223.915909 264.734009,223.733994 
	C263.826111,223.852142 263.634888,223.921356 263.154755,224.052063 
	C261.802216,224.087875 260.738525,224.062149 259.674866,224.036438 
z"/>
<path fill="#EAE9E5" opacity="1.000000" stroke="none" 
	d="
M259.346252,224.371857 
	C260.738525,224.062149 261.802216,224.087875 263.297302,224.332657 
	C263.871063,224.705948 264.013397,224.860153 264.155731,225.014374 
	C263.963867,226.293701 263.772003,227.573029 263.224304,229.029739 
	C261.505981,229.377777 260.143463,229.548416 258.442078,229.829865 
	C258.408051,228.196213 258.712860,226.451752 259.346252,224.371857 
z"/>
<path fill="#505353" opacity="1.000000" stroke="none" 
	d="
M264.335114,224.848053 
	C264.013397,224.860153 263.871063,224.705948 263.586182,224.271149 
	C263.634888,223.921356 263.826111,223.852142 264.317749,223.761139 
	C264.751343,224.071991 264.716797,224.386124 264.335114,224.848053 
z"/>
<path fill="#14BFE4" opacity="1.000000" stroke="none" 
	d="
M251.710449,191.862976 
	C250.147003,192.021240 249.085892,192.133698 247.796341,192.193802 
	C246.023529,192.376556 244.468643,192.844620 242.938034,192.775421 
	C241.639694,192.716736 239.973938,192.384506 239.215195,191.519989 
	C238.636139,190.860184 238.786606,188.826508 239.413223,188.050659 
	C240.026779,187.290955 241.664337,187.066772 242.832458,187.112976 
	C244.710617,187.187225 246.572327,187.677277 249.018158,187.861389 
	C250.482483,187.673706 251.369629,187.616318 252.441315,187.612335 
	C254.326462,187.539215 256.036224,187.245331 257.724945,187.337387 
	C259.162689,187.415756 260.844788,187.592728 261.891144,188.405396 
	C262.443176,188.834152 262.332336,191.235703 261.686981,191.810776 
	C260.831116,192.573410 259.152130,192.652710 257.841431,192.607132 
	C255.958328,192.541672 254.088364,192.098907 251.710449,191.862976 
z"/>
<path fill="#10BEE5" opacity="1.000000" stroke="none" 
	d="
M264.165680,147.487228 
	C264.480072,142.442062 265.312317,141.920441 269.573029,143.771240 
	C273.110016,145.307678 276.103943,144.786331 278.929962,141.752960 
	C286.351959,133.786392 297.725189,136.304672 301.658386,146.611008 
	C301.887268,147.210724 301.948883,148.250290 302.316101,148.366684 
	C313.994659,152.068420 307.326874,161.621613 309.589294,168.662430 
	C301.735657,169.900742 294.995544,170.460770 290.921844,162.569092 
	C290.461548,161.677505 288.606079,161.515808 287.407043,160.993835 
	C284.983307,159.938675 281.746368,159.515488 280.300140,157.683044 
	C275.989929,152.221802 270.482971,153.512726 265.321838,154.586792 
	C262.962555,155.077805 261.123810,156.135803 260.116211,153.458237 
	C259.176544,150.961212 260.436462,149.294189 263.851501,149.337769 
	C267.173187,150.043365 269.881805,150.889877 272.546265,150.768341 
	C276.173767,150.602875 279.021820,151.418320 281.078644,154.505157 
	C283.418701,158.017044 286.647369,158.741653 290.997131,157.344528 
	C290.997131,154.690033 290.997131,151.952087 290.997131,149.123413 
	C293.846100,148.886520 296.206024,148.690277 298.686066,148.484055 
	C295.915009,139.709045 286.975220,137.438339 281.197968,143.510254 
	C277.020966,147.900330 268.651642,149.854523 264.165680,147.487228 
M306.662201,158.825562 
	C306.269470,151.846390 303.633240,150.509171 294.232819,152.520767 
	C291.965363,164.335938 297.145721,168.125076 306.662018,165.445221 
	C306.662018,163.634094 306.662018,161.671097 306.662201,158.825562 
z"/>
<path fill="#043039" opacity="1.000000" stroke="none" 
	d="
M264.117188,147.871094 
	C268.651642,149.854523 277.020966,147.900330 281.197968,143.510254 
	C286.975220,137.438339 295.915009,139.709045 298.686066,148.484055 
	C296.206024,148.690277 293.846100,148.886520 290.997131,149.123413 
	C290.997131,151.952087 290.997131,154.690033 290.997131,157.344528 
	C286.647369,158.741653 283.418701,158.017044 281.078644,154.505157 
	C279.021820,151.418320 276.173767,150.602875 272.546265,150.768341 
	C269.881805,150.889877 267.173187,150.043365 264.238861,149.326706 
	C264.018524,148.768417 264.043610,148.511688 264.117188,147.871094 
z"/>
<path fill="#10C4EB" opacity="1.000000" stroke="none" 
	d="
M329.960999,196.001251 
	C329.960876,205.462006 329.960876,214.423141 329.960876,223.687576 
	C326.176575,223.687576 322.768738,223.687576 318.961853,223.687576 
	C318.961853,208.777542 318.961853,193.911163 318.961853,178.683044 
	C322.458069,178.683044 325.861023,178.683044 329.961090,178.683044 
	C329.961090,184.320251 329.961090,189.910950 329.960999,196.001251 
z"/>
<path fill="#05313A" opacity="1.000000" stroke="none" 
	d="
M264.915649,254.927399 
	C268.208649,254.233139 271.676361,253.373032 275.148529,253.354568 
	C278.395630,253.337296 280.972687,252.705444 282.841766,249.929169 
	C285.132935,246.525940 288.222076,245.143250 292.803650,246.733856 
	C292.803650,249.134140 292.803650,251.874313 292.803650,254.926346 
	C295.659546,255.195724 298.034882,255.419769 300.410217,255.643829 
	C300.742523,256.075409 301.074799,256.506958 301.407074,256.938538 
	C299.111237,259.168945 297.123657,262.633392 294.438202,263.304291 
	C291.371490,264.070435 286.685425,263.451477 284.489838,261.462250 
	C280.816589,258.134277 277.586914,255.677689 272.390167,256.314850 
	C270.395447,256.559418 268.261200,255.666321 265.815308,255.414185 
	C265.324127,255.400833 265.208221,255.264877 264.915649,254.927399 
z"/>
<path fill="#053B47" opacity="1.000000" stroke="none" 
	d="
M298.743988,241.870743 
	C299.635895,240.557739 300.292236,238.458694 301.471710,238.105194 
	C303.543610,237.484253 305.935730,237.931747 308.450531,237.931747 
	C308.450531,242.859436 308.450531,247.234558 308.450531,251.939026 
	C304.314331,251.939026 300.442230,251.939026 295.036560,251.939026 
	C296.075195,248.106308 297.010803,244.653824 298.143677,241.857758 
	C297.091705,245.814728 296.955048,249.219101 300.922974,250.167938 
	C302.520599,250.549957 305.215332,248.582825 306.531799,246.968185 
	C307.201935,246.146286 306.368561,242.651413 305.436005,242.270264 
	C303.478027,241.469940 301.005371,241.928802 298.743988,241.870743 
z"/>
<path fill="#10BEE4" opacity="1.000000" stroke="none" 
	d="
M298.760986,241.846344 
	C301.005371,241.928802 303.478027,241.469940 305.436005,242.270264 
	C306.368561,242.651413 307.201935,246.146286 306.531799,246.968185 
	C305.215332,248.582825 302.520599,250.549957 300.922974,250.167938 
	C296.955048,249.219101 297.091705,245.814728 298.604614,242.129700 
	C298.868317,241.745193 298.778015,241.821945 298.760986,241.846344 
z"/>
<path fill="#053B47" opacity="1.000000" stroke="none" 
	d="
M306.662109,159.266830 
	C306.662018,161.671097 306.662018,163.634094 306.662018,165.445221 
	C297.145721,168.125076 291.965363,164.335938 294.232819,152.520767 
	C303.633240,150.509171 306.269470,151.846390 306.662109,159.266830 
M296.796753,155.005905 
	C296.329681,156.053329 295.214996,157.375534 295.520355,158.095245 
	C296.345947,160.041306 297.426361,162.523300 299.083862,163.253708 
	C300.255829,163.770157 303.563965,162.155609 304.058777,160.809021 
	C304.686768,159.099991 304.003967,156.219604 302.785919,154.767151 
	C301.988495,153.816223 299.240692,154.500870 296.796753,155.005905 
z"/>
<path fill="#10BEE4" opacity="1.000000" stroke="none" 
	d="
M297.081604,154.729431 
	C299.240692,154.500870 301.988495,153.816223 302.785919,154.767151 
	C304.003967,156.219604 304.686768,159.099991 304.058777,160.809021 
	C303.563965,162.155609 300.255829,163.770157 299.083862,163.253708 
	C297.426361,162.523300 296.345947,160.041306 295.520355,158.095245 
	C295.214996,157.375534 296.329681,156.053329 297.081604,154.729431 
z"/>
</svg>